<?xml version="1.0" encoding="UTF-8"?>
<svg id="Calque_1" data-name="Calque 1" xmlns="http://www.w3.org/2000/svg" viewBox="0 0 72 72">
  <defs>
    <style>
      .cls-1 {
        fill: #222a3d;
      }

      .cls-1, .cls-2, .cls-3 {
        stroke-width: 0px;
      }

      .cls-2 {
        fill: #d75614;
      }

      .cls-3 {
        fill: #a99591;
      }
    </style>
  </defs>
  <path class="cls-1" d="M18.53,27.91c-3.42-.96-6.81-1.01-10.19.19-2.43.87-4.37,2.42-6.07,4.31-.25.27,0,.27.14.31,2.15.59,4.32,1.08,6.52,1.44,3.78.63,7.57.97,11.39.51,1.83-.22,3.62-.62,5.29-1.47.55-.28,1.07-.59,1.51-1.05-2.67-1.84-5.47-3.38-8.6-4.26ZM21.47,33.27c-2.75.51-5.52.48-8.29.23-2.93-.27-5.82-.82-8.68-1.51-.03,0-.06-.02-.1-.04,0-.03,0-.07.02-.09,1.57-1.38,3.32-2.42,5.38-2.9.11-.03.22-.03.33-.04-.4.3-.81.59-1.14.98-.61.74-.49,1.34.37,1.77.81.4,1.69.55,2.58.66,3.01.38,6.03.31,9.06.21,1.15-.04,2.29-.09,3.44-.14-.94.44-1.95.68-2.97.87Z"/>
  <path class="cls-2" d="M62.18,24.69c.91,1.23,1.77,2.5,2.09,4.03.16.77-.14,1.23-.91,1.4-.98.23-1.95.05-2.91-.17-2.15-.5-4.18-1.32-6.19-2.21-1.43-.63-2.94-.97-4.49-1.1-4.56-.39-8.35,1.32-11.65,4.32-2.09,1.89-3.73,4.12-4.93,6.69-.92,1.98-2.18,3.71-3.99,4.98-.77.54-1.61.96-2.51,1.23-.74.23-1.33.07-1.74-.46-.41-.53-.41-1.15,0-1.8.78-1.25,1.51-2.53,1.81-4,.21-1.05.34-2.11.61-3.15.24-.94.56-1.86.98-2.73,0-.12.03-.22.08-.33.51-.56,1.01-1.13,1.57-1.64.53-.49,1.04-1.01,1.57-1.5,1.53-1.39,3.14-2.68,4.83-3.86,1.47-1.02,2.99-1.96,4.59-2.74,2.05-1,4.18-1.79,6.45-2.16,4.21-.69,8.07.16,11.52,2.7.42.3.79.66,1.36.37.35.17.6.45.8.77-.07.56-.13,1.12-.09,1.69.05.65.1.68.7.48.28-.09.42-.22.34-.53-.02-.09-.01-.2.08-.27Z"/>
  <path class="cls-1" d="M40.94,33.02c.07.35.14.7.21,1.04.03.12-.04.16-.13.19-2.24.8-3.78,2.42-5.11,4.3-.71.99-1.27,2.07-1.79,3.17-1.27,2.68-3.38,4.14-6.33,4.42-1.93.18-3.8.61-5.53,1.54-2.36,1.25-4,3.17-5.08,5.58-.48,1.06-1.2,1.47-2.37,1.3-.39-.06-.77-.14-1.11-.34-.74-.42-.88-1.08-.39-1.77,2.23-3.13,4.67-6.09,7.31-8.89.68-.72,1.34-1.46,1.99-2.21,1.2-1.39,1.56-2.99,1.29-4.77-.06-.37-.1-.75-.17-1.12-.03-.18,0-.27.2-.29.09,0,.18-.02.26-.04.72-.14.71-.14.81.6.12.84.19,1.68.16,2.53-.06,1.38-.6,2.57-1.44,3.63-1.07,1.35-2.29,2.56-3.45,3.83-2.08,2.29-4.01,4.7-5.82,7.21-.16.23-.1.29.12.34.2.04.39.09.59.1.54.02.67-.07.89-.56,1.91-4.27,5.21-6.75,9.78-7.61.97-.18,1.96-.2,2.91-.42,2.03-.47,3.43-1.71,4.3-3.59.97-2.11,2.19-4.06,3.86-5.7,1.21-1.19,2.71-2.11,4.04-2.46Z"/>
  <path class="cls-1" d="M48.1,28.98c-1.78,0-3.28.23-4.76.57-.21.05-.31.03-.34-.2-.02-.16-.08-.32-.13-.48-.11-.43-.12-.44.3-.53,2.02-.45,4.06-.71,6.14-.49.78.08,1.54.24,2.26.55,2.04.87,2.8,2.54,2.67,4.59-.03.48-.11.95-.22,1.42-.04.2-.12.22-.29.17-.3-.09-.7-.08-.87-.27-.15-.18.08-.56.11-.85.14-1.05.12-2.08-.56-2.97-.59-.77-1.44-1.09-2.35-1.3-.73-.17-1.48-.23-1.97-.21Z"/>
  <path class="cls-2" d="M54.47,18.7c-1.71-.47-3.46-.66-5.23-.55-2.2.13-4.31.66-6.36,1.45-3.43,1.33-6.5,3.28-9.39,5.54-.08.07-.15.18-.28.15.86-1.01,1.83-1.91,2.84-2.77,2.19-1.87,4.59-3.37,7.34-4.28,1.64-.54,3.33-.83,5.05-.83,2,0,3.94.39,5.8,1.13.08.03.21.03.22.16Z"/>
  <path class="cls-3" d="M28.29,31.67c.06-.07.13-.14.19-.21,0,.11-.04.19-.11.27-.03-.02-.05-.03-.08-.05Z"/>
  <path class="cls-1" d="M68.37,31.72c-.13-.14-.27-.27-.41-.4-.72-.67-1.22-1.47-1.31-2.45-.07-.83-.19-1.63-.49-2.41-.75-1.92-.97-3.9-.7-5.94.06-.44-.04-.8-.41-1.06-.37-.25-.74-.22-1.14-.02-1.25.63-2.52,1.24-3.77,1.87-.18.09-.31.09-.47-.03-.81-.6-1.66-1.12-2.57-1.56-.85-.41-1.72-.77-2.64-1.02-.19-.14-.42-.18-.64-.24-1.61-.42-3.25-.5-4.91-.38-1.62.12-3.2.46-4.75.96-2.61.84-5.03,2.09-7.32,3.58-1.26.82-2.5,1.67-3.64,2.67-.27.29-.57.53-.86.79-.57.49-1.13.97-1.68,1.47-1.11,1-2.17,2.05-3.16,3.17-.06.07-.22.16-.13.23.29.25.52.59.92.71.09-.05.15-.12.19-.21.58-.6,1.15-1.21,1.75-1.79,2.16-2.12,4.49-4.05,7.02-5.72,2.95-1.95,6.08-3.51,9.57-4.23,2-.41,4-.49,6.01-.12,2.34.43,4.44,1.39,6.31,2.83.4.31.75.52,1.22.18h0,0c.41-.22.83-.43,1.33-.7-.28.51-.47.95-.6,1.41h0s0,0,0,0c-.14.59-.17,1.18-.12,1.78.07.75.08.75.77.5.01,0,.02,0,.03-.01.35-.07.58-.21.41-.62-.03-.08,0-.18,0-.26-.16-1.25.76-2.85,2-3.58-.02.34-.05.67-.05,1,0,1.64.3,3.23.88,4.77.17.44.36.88.37,1.35,0,1.69.67,3.07,1.94,4.16.18.16.12.21-.05.29-.84.39-1.66.31-2.47-.12-1.05-.56-2.14-1.06-3.25-1.47-1.5-.55-3.02-1.02-4.65-.91-.45.03-.45.03-.37.45.03.18.07.35.09.53.02.2.1.25.3.23.57-.05,1.14-.01,1.7.1,1.64.32,3.17.97,4.67,1.67.57.27,1.11.62,1.72.8,1.12.32,2.19.24,3.17-.43.68-.46.74-1.22.18-1.81Z"/>
  <path class="cls-2" d="M10.12,28.92c1.5-.28,2.85.17,3.67,1.44.16.24.26.27.51.12.8-.46.81-.45.23-1.19-.25-.32-.56-.59-.93-.89,4.21.07,7.85,1.62,11.33,3.77-.17.12-.32.2-.5.23-.38.12-.77.14-1.16.15-.62.02-1.25.06-1.87.09-2.07.1-4.15.09-6.22.05-1.84-.04-3.68-.14-5.45-.75-.31-.11-.6-.23-.84-.46-.44-.41-.52-.73-.24-1.25.32-.61.81-1.06,1.46-1.31Z"/>
</svg>