<?xml version="1.0" encoding="UTF-8"?>
<svg id="Calque_1" data-name="Calque 1" xmlns="http://www.w3.org/2000/svg" viewBox="0 0 2095.81 1173.31">
  <defs>
    <style>
      .cls-1 {
        fill: #212a3d;
      }

      .cls-1, .cls-2, .cls-3 {
        stroke-width: 0px;
      }

      .cls-2 {
        fill: #d75513;
      }

      .cls-3 {
        fill: #a99490;
      }
    </style>
  </defs>
  <path class="cls-1" d="M513.69,331.22c-107.8-30.42-215.03-31.97-321.59,6.04C115.39,364.63,54.32,413.74.59,473.4c-7.81,8.67-.25,8.4,4.57,9.72,67.84,18.69,136.41,34.06,205.84,45.6,119.19,19.82,238.79,30.65,359.48,16.09,57.88-6.98,114.31-19.7,166.81-46.24,17.26-8.72,33.68-18.75,47.76-32.98-84.31-58.16-172.74-106.55-271.37-134.37ZM606.3,500.38c-86.83,16.02-174.18,15.28-261.74,7.25-92.62-8.5-183.71-25.73-274.01-47.52-.99-.24-1.92-.72-3.24-1.23.23-.97.15-2.19.71-2.68,49.6-43.49,104.93-76.41,169.76-91.68,3.38-.8,6.93-.91,10.4-1.34-12.72,9.4-25.62,18.57-35.84,30.89-19.35,23.33-15.49,42.28,11.76,55.88,25.59,12.77,53.41,17.39,81.35,20.91,95.05,11.97,190.47,9.8,285.88,6.55,36.21-1.23,72.4-2.93,108.6-4.42-29.81,13.92-61.55,21.46-93.64,27.38Z"/>
  <path class="cls-2" d="M1891.39,229.79c28.75,38.87,55.73,78.77,66.06,127.09,5.19,24.28-4.29,38.74-28.57,44.31-31.04,7.11-61.68,1.66-91.94-5.34-67.77-15.67-131.9-41.63-195.28-69.73-45.11-20-92.72-30.68-141.71-34.83-143.83-12.19-263.44,41.79-367.74,136.22-66.03,59.78-117.79,130.09-155.45,211.05-29.06,62.48-68.84,116.99-126.02,157.2-24.34,17.11-50.71,30.21-79.21,38.9-23.4,7.13-41.98,2.2-54.96-14.63-12.94-16.77-12.88-36.4-.04-56.93,24.7-39.49,47.73-79.93,57.22-126.12,6.78-33.04,10.88-66.61,19.35-99.36,7.68-29.71,17.56-58.55,31.05-86.14-.14-3.67.82-7.07,2.41-10.35,16-17.75,31.98-35.55,49.6-51.7,16.87-15.45,32.69-31.96,49.65-47.36,48.3-43.87,99.09-84.52,152.57-121.82,46.27-32.27,94.3-61.74,145.03-86.47,64.84-31.6,132.06-56.47,203.6-68.21,132.99-21.83,254.66,5.14,363.76,85.11,13.12,9.61,24.9,20.93,42.79,11.66,11.04,5.46,18.89,14.24,25.41,24.43-2.13,17.67-4.21,35.29-2.83,53.21,1.59,20.6,3.08,21.54,22.25,15.06,8.78-2.97,13.15-6.97,10.58-16.62-.79-2.96-.37-6.32,2.45-8.63Z"/>
  <path class="cls-1" d="M1220.86,492.5c2.24,10.99,4.35,21.98,6.78,32.89.85,3.82-1.19,5.01-4.03,6.02-70.64,25.16-119.31,76.52-161.33,135.63-22.27,31.33-39.97,65.28-56.38,99.98-39.97,84.53-106.62,130.8-199.87,139.51-61.01,5.7-120.03,19.41-174.67,48.45-74.47,39.59-126.13,99.96-160.3,176.17-15.06,33.59-37.86,46.27-74.93,40.99-12.23-1.74-24.22-4.51-35.08-10.74-23.3-13.36-27.87-34-12.38-55.72,70.44-98.77,147.32-192.24,230.64-280.44,21.51-22.77,42.39-46.12,62.87-69.86,37.88-43.9,49.18-94.46,40.87-150.6-1.75-11.83-3.28-23.7-5.37-35.48-.99-5.6.27-8.66,6.29-9.06,2.8-.19,5.59-.68,8.35-1.22,22.63-4.39,22.31-4.36,25.65,19.02,3.79,26.52,6.08,53.08,4.91,79.88-1.89,43.5-18.87,80.99-45.54,114.69-33.7,42.6-72.36,80.73-108.78,120.88-65.6,72.34-126.54,148.39-183.77,227.48-5.16,7.12-3.18,9.3,3.93,10.62,6.21,1.15,12.43,2.78,18.69,3.02,17.11.64,21.05-2.12,28.01-17.7,60.21-134.86,164.5-212.99,308.61-240.24,30.48-5.76,61.73-6.38,91.89-13.35,64.09-14.81,108.36-54.11,135.65-113.36,30.7-66.66,69.06-128.11,121.84-179.87,38.34-37.59,85.46-66.68,127.43-77.6Z"/>
  <path class="cls-1" d="M1446.98,365.01c-56.22.19-103.49,7.12-150.19,18.09-6.74,1.58-9.73.96-10.73-6.25-.72-5.18-2.64-10.19-3.99-15.29-3.6-13.67-3.64-13.93,9.44-16.8,63.9-14.07,128.29-22.27,193.85-15.47,24.6,2.55,48.63,7.73,71.42,17.49,64.39,27.56,88.44,80.27,84.23,144.94-.98,15.09-3.53,29.99-6.81,44.8-1.4,6.33-3.74,7.08-9.3,5.34-9.36-2.93-22.23-2.46-27.41-8.64-4.66-5.56,2.37-17.56,3.6-26.82,4.41-33.2,3.75-65.6-17.81-93.72-18.65-24.33-45.6-34.45-74.17-40.93-23.07-5.23-46.56-7.23-62.14-6.74Z"/>
  <path class="cls-2" d="M1648.12,40.73c-54.1-14.78-109.19-20.73-165.12-17.29-69.39,4.26-136.12,20.69-200.82,45.76-108.38,41.99-205.16,103.62-296.26,174.89-2.65,2.07-4.66,5.58-8.91,4.67,27.26-31.91,57.92-60.39,89.77-87.56,69.09-58.92,144.9-106.4,231.68-135.11C1350.29,8.94,1403.53-.06,1458.02,0c63.18.07,124.3,12.21,183.07,35.62,2.62,1.04,6.59.84,7.04,5.11Z"/>
  <path class="cls-3" d="M821.61,449.88c2-2.26,3.99-4.52,5.99-6.78.3,3.4-1.12,6.09-3.48,8.38-.84-.54-1.68-1.07-2.52-1.6Z"/>
  <path class="cls-1" d="M2086.81,451.69c-4.05-4.39-8.53-8.4-12.92-12.47-22.73-21.03-38.54-46.24-41.2-77.39-2.23-26.1-5.92-51.55-15.53-76.01-23.79-60.6-30.76-123.22-21.96-187.62,1.88-13.74-1.32-25.33-12.98-33.38-11.59-8-23.48-6.94-35.86-.71-39.56,19.9-79.4,39.23-118.95,59.15-5.78,2.91-9.68,2.85-14.97-1.1-25.41-19-52.43-35.48-81.03-49.25-26.89-12.94-54.4-24.35-83.28-32.18-6.08-4.4-13.4-5.66-20.35-7.46-50.96-13.21-102.73-15.82-155.09-11.89-51.25,3.85-101.07,14.54-149.83,30.3-82.35,26.62-158.66,65.81-231,112.93-39.81,25.93-79,52.77-114.84,84.14-8.39,9.01-17.84,16.85-27.16,24.86-17.86,15.36-35.74,30.71-53.17,46.54-34.89,31.7-68.44,64.78-99.76,100.05-1.91,2.15-6.84,5.08-4.22,7.31,9.25,7.89,16.34,18.76,28.9,22.37,2.68-1.65,4.66-3.93,5.99-6.78,18.4-18.89,36.4-38.14,55.24-56.61,68.33-66.98,141.65-127.79,221.52-180.52,93.15-61.5,191.78-110.86,302.12-133.63,62.99-13,126.19-15.49,189.7-3.93,73.79,13.43,140.12,43.74,199.3,89.4,12.7,9.8,23.8,16.45,38.56,5.68h0,0c13.09-6.84,26.19-13.68,42.1-21.99-8.76,16.19-14.91,29.99-19.09,44.59h0s0,0,0,0c-4.57,18.53-5.36,37.33-3.68,56.26,2.1,23.59,2.52,23.81,24.36,15.73.33-.12.65-.28.99-.35,10.93-2.17,18.17-6.56,12.81-19.6-.98-2.39-.14-5.54-.14-8.33-4.93-39.36,24-90,63.22-113.05-.56,10.71-1.6,21.18-1.56,31.65.24,51.85,9.32,102.09,27.9,150.59,5.27,13.77,11.5,27.75,11.57,42.55.24,53.43,21.26,96.78,61.36,131.28,5.71,4.92,3.66,6.64-1.61,9.07-26.67,12.26-52.51,9.81-78.03-3.63-33.29-17.53-67.39-33.34-102.72-46.35-47.38-17.45-95.36-32.06-146.84-28.8-14.2.9-14.18.79-11.62,14.34,1.04,5.53,2.2,11.06,2.77,16.65.63,6.16,3.21,7.94,9.6,7.41,17.95-1.5,35.83-.41,53.6,3.07,51.85,10.14,99.99,30.47,147.55,52.61,18.12,8.44,34.98,19.63,54.41,25.25,35.31,10.22,69.16,7.43,99.99-13.45,21.36-14.46,23.27-38.35,5.82-57.28Z"/>
  <path class="cls-2" d="M248.18,363.18c47.44-8.92,89.9,5.3,115.87,45.52,4.97,7.7,8.26,8.38,16.04,3.87,25.29-14.65,25.54-14.32,7.18-37.68-7.99-10.17-17.81-18.58-29.21-28.18,132.9,2.17,247.87,51.12,357.55,118.9-5.26,3.84-10.04,6.45-15.66,7.38-11.85,3.92-24.36,4.39-36.5,4.73-19.7.55-39.34,2.03-58.99,2.94-65.43,3.06-130.92,2.94-196.31,1.45-57.97-1.32-116.13-4.5-171.88-23.51-9.72-3.32-19-7.36-26.64-14.57-13.77-13-16.27-22.93-7.48-39.47,10.2-19.2,25.54-33.31,46.04-41.37Z"/>
</svg>